<mxfile host="app.diagrams.net" agent="Mozilla/5.0 (Macintosh; Intel Mac OS X 10_15_7) AppleWebKit/537.36 (KHTML, like Gecko) Chrome/130.0.0.0 Safari/537.36" version="24.8.4">
  <diagram name="Page-1" id="_wf5MMj-bSi-hJAetCjL">
    <mxGraphModel dx="2074" dy="1179" grid="1" gridSize="10" guides="1" tooltips="1" connect="1" arrows="1" fold="1" page="1" pageScale="1" pageWidth="827" pageHeight="1169" math="0" shadow="0">
      <root>
        <mxCell id="0" />
        <mxCell id="1" parent="0" />
        <mxCell id="_SkEKdKEnOgEr_pKtQZT-1" value="&lt;font style=&quot;font-size: 24px;&quot;&gt;SelfActualise - TakeHome&lt;/font&gt;" style="text;html=1;align=center;verticalAlign=middle;resizable=0;points=[];autosize=1;strokeColor=none;fillColor=none;" vertex="1" parent="1">
          <mxGeometry x="40" y="50" width="300" height="40" as="geometry" />
        </mxCell>
        <mxCell id="_SkEKdKEnOgEr_pKtQZT-6" style="edgeStyle=orthogonalEdgeStyle;rounded=0;orthogonalLoop=1;jettySize=auto;html=1;entryX=0;entryY=0.5;entryDx=0;entryDy=0;" edge="1" parent="1" source="_SkEKdKEnOgEr_pKtQZT-2" target="_SkEKdKEnOgEr_pKtQZT-5">
          <mxGeometry relative="1" as="geometry" />
        </mxCell>
        <mxCell id="_SkEKdKEnOgEr_pKtQZT-2" value="User" style="shape=umlActor;verticalLabelPosition=bottom;verticalAlign=top;html=1;outlineConnect=0;" vertex="1" parent="1">
          <mxGeometry x="40" y="180" width="30" height="60" as="geometry" />
        </mxCell>
        <mxCell id="_SkEKdKEnOgEr_pKtQZT-5" value="Comm. Microservice" style="whiteSpace=wrap;html=1;aspect=fixed;" vertex="1" parent="1">
          <mxGeometry x="310" y="170" width="140" height="140" as="geometry" />
        </mxCell>
        <mxCell id="_SkEKdKEnOgEr_pKtQZT-7" value="POST /api/v1/sendMessage" style="text;html=1;align=center;verticalAlign=middle;resizable=0;points=[];autosize=1;strokeColor=none;fillColor=none;" vertex="1" parent="1">
          <mxGeometry x="105" y="180" width="170" height="30" as="geometry" />
        </mxCell>
        <mxCell id="_SkEKdKEnOgEr_pKtQZT-8" value="PSQL" style="shape=cylinder3;whiteSpace=wrap;html=1;boundedLbl=1;backgroundOutline=1;size=15;" vertex="1" parent="1">
          <mxGeometry x="680" y="40" width="60" height="80" as="geometry" />
        </mxCell>
        <mxCell id="_SkEKdKEnOgEr_pKtQZT-9" style="edgeStyle=orthogonalEdgeStyle;rounded=0;orthogonalLoop=1;jettySize=auto;html=1;entryX=0;entryY=0.5;entryDx=0;entryDy=0;entryPerimeter=0;" edge="1" parent="1" source="_SkEKdKEnOgEr_pKtQZT-5" target="_SkEKdKEnOgEr_pKtQZT-8">
          <mxGeometry relative="1" as="geometry" />
        </mxCell>
        <mxCell id="_SkEKdKEnOgEr_pKtQZT-10" value="Each message gets&amp;nbsp;&lt;div&gt;logged&lt;/div&gt;&lt;div&gt;&lt;br&gt;&lt;/div&gt;" style="text;html=1;align=center;verticalAlign=middle;resizable=0;points=[];autosize=1;strokeColor=none;fillColor=none;" vertex="1" parent="1">
          <mxGeometry x="550" y="40" width="130" height="60" as="geometry" />
        </mxCell>
      </root>
    </mxGraphModel>
  </diagram>
</mxfile>
